<svg width="30" height="30" viewBox="0 0 30 30" fill="none" xmlns="http://www.w3.org/2000/svg">
<path d="M15 15.8C14.5536 15.8017 14.1201 15.95 13.7661 16.2221C13.4122 16.4942 13.1574 16.875 13.041 17.306C12.9245 17.737 12.9529 18.1943 13.1216 18.6076C13.2904 19.0209 13.5902 19.3674 13.975 19.5937V22.5H16.05V19.5937C16.3545 19.4136 16.6072 19.1578 16.7835 18.8512C16.9598 18.5445 17.0538 18.1974 17.0563 17.8437V17.8437C17.0563 17.5743 17.003 17.3075 16.8995 17.0587C16.796 16.8099 16.6444 16.5841 16.4533 16.3941C16.2622 16.2042 16.0354 16.0539 15.786 15.9519C15.5366 15.85 15.2695 15.7983 15 15.8V15.8Z" stroke="black" stroke-linecap="round" stroke-linejoin="round"/>
<path d="M22.6813 11.1062H7.31255C5.82138 11.1062 4.61255 12.315 4.61255 13.8062V24.4875C4.61255 25.9786 5.82138 27.1875 7.31255 27.1875H22.6813C24.1725 27.1875 25.3813 25.9786 25.3813 24.4875V13.8062C25.3813 12.315 24.1725 11.1062 22.6813 11.1062Z" stroke="black" stroke-linecap="round" stroke-linejoin="round"/>
<path d="M8.34375 11.1063V9.475C8.34375 7.708 9.04569 6.01336 10.2952 4.7639C11.5446 3.51444 13.2392 2.8125 15.0062 2.8125C16.7733 2.8125 18.4679 3.51444 19.7173 4.7639C20.9668 6.01336 21.6687 7.708 21.6687 9.475V11.1063" stroke="black" stroke-linecap="round" stroke-linejoin="round"/>
</svg>
