<svg width="30" height="30" viewBox="0 0 30 30" fill="none" xmlns="http://www.w3.org/2000/svg">
<path d="M15 3.43751C16.1418 3.43541 17.2586 3.77194 18.2091 4.40456C19.1597 5.03717 19.9013 5.93744 20.3402 6.99154C20.7791 8.04563 20.8956 9.2062 20.6749 10.3265C20.4542 11.4468 19.9062 12.4765 19.1003 13.2853C18.2944 14.0942 17.2668 14.6459 16.1473 14.8707C15.0278 15.0956 13.8668 14.9834 12.8111 14.5484C11.7554 14.1133 10.8524 13.3751 10.2163 12.4268C9.58023 11.4786 9.23958 10.3631 9.23748 9.22126V9.21063C9.23748 7.68135 9.84426 6.21454 10.9246 5.13217C12.005 4.04981 13.4707 3.44032 15 3.43751V3.43751ZM15 17.1231C21.45 17.1231 26.5356 21.4188 26.5356 23.5581V26.5625H3.46436V23.5044C3.46436 21.365 8.54936 17.1231 15 17.1231Z" stroke="black" stroke-linecap="round" stroke-linejoin="round"/>
</svg>
